<svg width="144" height="144" viewBox="0 0 144 144" fill="none" xmlns="http://www.w3.org/2000/svg">
<path fill-rule="evenodd" clip-rule="evenodd" d="M144 72C144 32.2386 111.761 0 72 0C32.2386 0 0 32.2386 0 72C0 107.934 26.3257 137.722 60.7511 143.13V92.8175H42.4649V72H60.7511V56.1337C60.7511 38.0906 71.5039 28.1173 87.9471 28.1173C95.8243 28.1173 104.066 29.5246 104.066 29.5246V47.2439H94.9839C86.0437 47.2439 83.2489 52.7925 83.2489 58.4928V71.9994H103.215L100.026 92.8169H83.2483V143.129C117.674 137.732 143.999 107.944 143.999 71.9994L144 72Z" fill="#1977F3"/>
<path fill-rule="evenodd" clip-rule="evenodd" d="M100.026 92.8169L103.216 71.9994H83.2494V58.4927C83.2494 52.8024 86.0337 47.2438 94.9844 47.2438H104.067V29.5245C104.067 29.5245 95.8254 28.1172 87.9476 28.1172C71.5045 28.1172 60.7517 38.0805 60.7517 56.1337V71.9999H42.4654V92.8174H60.7517V143.13C64.4168 143.706 68.1732 144 72.0006 144C75.8279 144 79.5843 143.696 83.2494 143.13V92.8174H100.027L100.026 92.8169Z" fill="#FEFEFE"/>
</svg>
