<svg width="209" height="144" viewBox="0 0 209 144" fill="none" xmlns="http://www.w3.org/2000/svg">
<path d="M108.698 143.811L65.989 143.03C52.1609 142.758 38.2983 143.301 24.7413 140.482C4.11793 136.268 2.6569 115.611 1.12808 98.2827C-0.978469 73.9218 -0.16296 49.1187 3.81238 24.9611C6.05658 11.4062 14.8885 3.31785 28.5466 2.43768C74.653 -0.756559 121.066 -0.378008 167.07 1.11222C171.929 1.24883 176.821 1.99551 181.612 2.84543C205.26 6.99075 205.837 30.4006 207.37 50.1073C208.899 70.0173 208.253 90.0296 205.331 109.804C202.987 126.177 198.502 139.907 179.573 141.232C155.856 142.966 132.684 144.361 108.901 143.917C108.902 143.811 108.766 143.811 108.698 143.811ZM83.5892 102.36C101.462 92.0986 118.993 82.008 136.763 71.8152C118.857 61.5536 101.359 51.463 83.5892 41.2702V102.36Z" fill="#FF0000"/>
</svg>
